<?xml version="1.0" encoding="UTF-8" standalone="no"?>
<!-- Generated by IcoMoon.io -->

<svg
   xmlns:dc="http://purl.org/dc/elements/1.1/"
   xmlns:cc="http://creativecommons.org/ns#"
   xmlns:rdf="http://www.w3.org/1999/02/22-rdf-syntax-ns#"
   xmlns:svg="http://www.w3.org/2000/svg"
   xmlns="http://www.w3.org/2000/svg"
   xmlns:sodipodi="http://sodipodi.sourceforge.net/DTD/sodipodi-0.dtd"
   xmlns:inkscape="http://www.inkscape.org/namespaces/inkscape"
   version="1.1"
   width="512"
   height="512"
   viewBox="0 0 512 512"
   id="svg2"
   inkscape:version="0.48.4 r9939"
   sodipodi:docname="bug.svg">
  <metadata
     id="metadata11">
    <rdf:RDF>
      <cc:Work
         rdf:about="">
        <dc:format>image/svg+xml</dc:format>
        <dc:type
           rdf:resource="http://purl.org/dc/dcmitype/StillImage" />
        <dc:title></dc:title>
      </cc:Work>
    </rdf:RDF>
  </metadata>
  <defs
     id="defs9" />
  <sodipodi:namedview
     pagecolor="#ffffff"
     bordercolor="#666666"
     borderopacity="1"
     objecttolerance="10"
     gridtolerance="10"
     guidetolerance="10"
     inkscape:pageopacity="0"
     inkscape:pageshadow="2"
     inkscape:window-width="1301"
     inkscape:window-height="744"
     id="namedview7"
     showgrid="false"
     inkscape:snap-bbox="true"
     inkscape:bbox-nodes="true"
     inkscape:snap-bbox-edge-midpoints="true"
     inkscape:snap-bbox-midpoints="true"
     inkscape:zoom="0.4609375"
     inkscape:cx="256"
     inkscape:cy="256"
     inkscape:window-x="65"
     inkscape:window-y="24"
     inkscape:window-maximized="1"
     inkscape:current-layer="svg2" />
  <g
     id="icomoon-ignore" />
  <path
     d="M512 288v-32h-96.645c-2.931-36.343-15.893-69.513-35.835-96.125h80.972l35.030-140.12-31.045-7.761-28.97 115.88h-87.34c-0.446-0.347-0.898-0.687-1.349-1.028 3.355-9.751 5.181-20.211 5.181-31.097 0.001-52.88-42.979-95.749-95.999-95.749s-96 42.869-96 95.75c0 10.886 1.825 21.346 5.181 31.097-0.45 0.342-0.902 0.681-1.349 1.028h-87.34l-28.97-115.88-31.045 7.761 35.030 140.12h80.972c-19.942 26.611-32.903 59.781-35.834 96.124h-96.645v32h96.685c1.901 22.832 7.754 44.406 16.819 63.875h-61.996l-35.030 140.119 31.045 7.762 28.97-115.881h56.177c29.346 39.016 73.698 63.875 123.33 63.875s93.983-24.859 123.331-63.875h56.177l28.97 115.881 31.045-7.762-35.030-140.119h-61.996c9.065-19.469 14.918-41.043 16.818-63.875h96.685z"
     id="path5"
     style="fill:#f4473a;fill-opacity:1"
     inkscape:export-filename="/home/william/init/public/images/bug.png"
     inkscape:export-xdpi="90"
     inkscape:export-ydpi="90" />
  <text
     xml:space="preserve"
     style="font-size:120px;font-style:normal;font-variant:normal;font-weight:300;font-stretch:normal;line-height:125%;letter-spacing:0px;word-spacing:0px;fill:#000000;fill-opacity:1;stroke:none;font-family:Ubuntu;-inkscape-font-specification:Ubuntu Light"
     x="154.42563"
     y="291.45801"
     id="text3756"
     sodipodi:linespacing="125%"
     inkscape:export-filename="/home/william/init/public/images/bug.png"
     inkscape:export-xdpi="90"
     inkscape:export-ydpi="90"><tspan
       sodipodi:role="line"
       id="tspan3758"
       x="154.42563"
       y="291.45801"
       style="font-size:120px;font-style:normal;font-variant:normal;font-weight:300;font-stretch:normal;fill:#ffffff;font-family:Ubuntu;-inkscape-font-specification:Ubuntu Light">404</tspan></text>
</svg>
